<mxfile host="app.diagrams.net" modified="2023-08-02T08:10:49.078Z" agent="Mozilla/5.0 (Windows NT 10.0; Win64; x64) AppleWebKit/537.36 (KHTML, like Gecko) Chrome/115.0.0.0 Safari/537.36" etag="prXVoIw32FSdD181D8Cs" version="21.6.6" type="github">
  <diagram name="Página-1" id="HHhIYVozGTrcep-nTPFF">
    <mxGraphModel dx="794" dy="424" grid="1" gridSize="10" guides="1" tooltips="1" connect="1" arrows="1" fold="1" page="1" pageScale="1" pageWidth="827" pageHeight="1169" math="0" shadow="0">
      <root>
        <mxCell id="0" />
        <mxCell id="1" parent="0" />
        <mxCell id="smadUlZnCOTaaK-JGpi5-32" value="" style="rounded=0;whiteSpace=wrap;html=1;" parent="1" vertex="1">
          <mxGeometry x="175" y="780" width="441" height="260" as="geometry" />
        </mxCell>
        <mxCell id="smadUlZnCOTaaK-JGpi5-1" value="" style="rounded=0;whiteSpace=wrap;html=1;" parent="1" vertex="1">
          <mxGeometry x="190" y="40" width="350" height="200" as="geometry" />
        </mxCell>
        <mxCell id="smadUlZnCOTaaK-JGpi5-2" value="Anmeldeseite" style="text;strokeColor=none;align=center;fillColor=none;html=1;verticalAlign=middle;whiteSpace=wrap;rounded=0;" parent="1" vertex="1">
          <mxGeometry x="190" y="40" width="110" height="30" as="geometry" />
        </mxCell>
        <mxCell id="smadUlZnCOTaaK-JGpi5-3" value="Nutzername" style="text;strokeColor=none;align=center;fillColor=none;html=1;verticalAlign=middle;whiteSpace=wrap;rounded=0;" parent="1" vertex="1">
          <mxGeometry x="335" y="110" width="60" height="30" as="geometry" />
        </mxCell>
        <mxCell id="smadUlZnCOTaaK-JGpi5-4" value="Passwort" style="text;strokeColor=none;align=center;fillColor=none;html=1;verticalAlign=middle;whiteSpace=wrap;rounded=0;" parent="1" vertex="1">
          <mxGeometry x="335" y="140" width="60" height="30" as="geometry" />
        </mxCell>
        <mxCell id="smadUlZnCOTaaK-JGpi5-5" value="Ok" style="text;strokeColor=none;align=center;fillColor=none;html=1;verticalAlign=middle;whiteSpace=wrap;rounded=0;" parent="1" vertex="1">
          <mxGeometry x="450" y="200" width="60" height="30" as="geometry" />
        </mxCell>
        <mxCell id="smadUlZnCOTaaK-JGpi5-6" value="" style="rounded=0;whiteSpace=wrap;html=1;" parent="1" vertex="1">
          <mxGeometry x="30" y="280" width="350" height="200" as="geometry" />
        </mxCell>
        <mxCell id="smadUlZnCOTaaK-JGpi5-7" value="Hauptseite Nutzer" style="text;strokeColor=none;align=center;fillColor=none;html=1;verticalAlign=middle;whiteSpace=wrap;rounded=0;" parent="1" vertex="1">
          <mxGeometry x="30" y="280" width="110" height="30" as="geometry" />
        </mxCell>
        <mxCell id="smadUlZnCOTaaK-JGpi5-8" value="" style="rounded=0;whiteSpace=wrap;html=1;" parent="1" vertex="1">
          <mxGeometry x="420" y="280" width="350" height="200" as="geometry" />
        </mxCell>
        <mxCell id="smadUlZnCOTaaK-JGpi5-9" value="Hauptseite Admin" style="text;strokeColor=none;align=center;fillColor=none;html=1;verticalAlign=middle;whiteSpace=wrap;rounded=0;" parent="1" vertex="1">
          <mxGeometry x="420" y="280" width="110" height="30" as="geometry" />
        </mxCell>
        <mxCell id="smadUlZnCOTaaK-JGpi5-10" value="Reservieren" style="text;strokeColor=none;align=center;fillColor=none;html=1;verticalAlign=middle;whiteSpace=wrap;rounded=0;" parent="1" vertex="1">
          <mxGeometry x="80" y="350" width="60" height="30" as="geometry" />
        </mxCell>
        <mxCell id="smadUlZnCOTaaK-JGpi5-11" value="Stornieren" style="text;strokeColor=none;align=center;fillColor=none;html=1;verticalAlign=middle;whiteSpace=wrap;rounded=0;" parent="1" vertex="1">
          <mxGeometry x="175" y="350" width="60" height="30" as="geometry" />
        </mxCell>
        <mxCell id="smadUlZnCOTaaK-JGpi5-12" value="Passwort ändern" style="text;strokeColor=none;align=center;fillColor=none;html=1;verticalAlign=middle;whiteSpace=wrap;rounded=0;" parent="1" vertex="1">
          <mxGeometry x="130" y="390" width="60" height="30" as="geometry" />
        </mxCell>
        <mxCell id="smadUlZnCOTaaK-JGpi5-13" value="Reservieren" style="text;strokeColor=none;align=center;fillColor=none;html=1;verticalAlign=middle;whiteSpace=wrap;rounded=0;" parent="1" vertex="1">
          <mxGeometry x="470" y="350" width="60" height="30" as="geometry" />
        </mxCell>
        <mxCell id="smadUlZnCOTaaK-JGpi5-14" value="Stornieren" style="text;strokeColor=none;align=center;fillColor=none;html=1;verticalAlign=middle;whiteSpace=wrap;rounded=0;" parent="1" vertex="1">
          <mxGeometry x="565" y="350" width="60" height="30" as="geometry" />
        </mxCell>
        <mxCell id="smadUlZnCOTaaK-JGpi5-15" value="Passwort ändern" style="text;strokeColor=none;align=center;fillColor=none;html=1;verticalAlign=middle;whiteSpace=wrap;rounded=0;" parent="1" vertex="1">
          <mxGeometry x="520" y="390" width="60" height="30" as="geometry" />
        </mxCell>
        <mxCell id="smadUlZnCOTaaK-JGpi5-16" value="Benutzer anlegen" style="text;strokeColor=none;align=center;fillColor=none;html=1;verticalAlign=middle;whiteSpace=wrap;rounded=0;" parent="1" vertex="1">
          <mxGeometry x="600" y="390" width="60" height="30" as="geometry" />
        </mxCell>
        <mxCell id="smadUlZnCOTaaK-JGpi5-17" value="Benutzer löschen" style="text;strokeColor=none;align=center;fillColor=none;html=1;verticalAlign=middle;whiteSpace=wrap;rounded=0;" parent="1" vertex="1">
          <mxGeometry x="680" y="390" width="60" height="30" as="geometry" />
        </mxCell>
        <mxCell id="smadUlZnCOTaaK-JGpi5-18" value="Koffer anlegen" style="text;strokeColor=none;align=center;fillColor=none;html=1;verticalAlign=middle;whiteSpace=wrap;rounded=0;" parent="1" vertex="1">
          <mxGeometry x="550" y="430" width="60" height="30" as="geometry" />
        </mxCell>
        <mxCell id="smadUlZnCOTaaK-JGpi5-19" value="Koffer löschen" style="text;strokeColor=none;align=center;fillColor=none;html=1;verticalAlign=middle;whiteSpace=wrap;rounded=0;" parent="1" vertex="1">
          <mxGeometry x="640" y="430" width="60" height="30" as="geometry" />
        </mxCell>
        <mxCell id="smadUlZnCOTaaK-JGpi5-20" value="" style="rounded=0;whiteSpace=wrap;html=1;" parent="1" vertex="1">
          <mxGeometry x="40" y="520" width="350" height="200" as="geometry" />
        </mxCell>
        <mxCell id="smadUlZnCOTaaK-JGpi5-23" value="Reservieren" style="text;strokeColor=none;align=center;fillColor=none;html=1;verticalAlign=middle;whiteSpace=wrap;rounded=0;" parent="1" vertex="1">
          <mxGeometry x="40" y="520" width="110" height="30" as="geometry" />
        </mxCell>
        <mxCell id="smadUlZnCOTaaK-JGpi5-24" value="" style="rounded=0;whiteSpace=wrap;html=1;" parent="1" vertex="1">
          <mxGeometry x="426" y="520" width="350" height="200" as="geometry" />
        </mxCell>
        <mxCell id="smadUlZnCOTaaK-JGpi5-25" value="Stornieren" style="text;strokeColor=none;align=center;fillColor=none;html=1;verticalAlign=middle;whiteSpace=wrap;rounded=0;" parent="1" vertex="1">
          <mxGeometry x="431" y="520" width="110" height="30" as="geometry" />
        </mxCell>
        <mxCell id="smadUlZnCOTaaK-JGpi5-28" value="" style="rounded=0;whiteSpace=wrap;html=1;" parent="1" vertex="1">
          <mxGeometry x="227" y="555" width="120" height="60" as="geometry" />
        </mxCell>
        <mxCell id="smadUlZnCOTaaK-JGpi5-27" value="Koffer wählen" style="text;strokeColor=none;align=center;fillColor=none;html=1;verticalAlign=middle;whiteSpace=wrap;rounded=0;" parent="1" vertex="1">
          <mxGeometry x="257" y="580" width="60" height="30" as="geometry" />
        </mxCell>
        <mxCell id="smadUlZnCOTaaK-JGpi5-29" value="Dropdown" style="text;strokeColor=none;align=center;fillColor=none;html=1;verticalAlign=middle;whiteSpace=wrap;rounded=0;" parent="1" vertex="1">
          <mxGeometry x="227" y="555" width="110" height="30" as="geometry" />
        </mxCell>
        <mxCell id="smadUlZnCOTaaK-JGpi5-30" value="" style="rounded=0;whiteSpace=wrap;html=1;" parent="1" vertex="1">
          <mxGeometry x="229" y="890" width="341" height="90" as="geometry" />
        </mxCell>
        <mxCell id="smadUlZnCOTaaK-JGpi5-31" value="Pop-up: Kalenderansicht" style="text;strokeColor=none;align=center;fillColor=none;html=1;verticalAlign=middle;whiteSpace=wrap;rounded=0;" parent="1" vertex="1">
          <mxGeometry x="289" y="895" width="188.5" height="35" as="geometry" />
        </mxCell>
        <mxCell id="smadUlZnCOTaaK-JGpi5-33" value="Angemeldeter Benutzer" style="text;strokeColor=none;align=center;fillColor=none;html=1;verticalAlign=middle;whiteSpace=wrap;rounded=0;" parent="1" vertex="1">
          <mxGeometry x="40" y="555" width="110" height="30" as="geometry" />
        </mxCell>
        <mxCell id="smadUlZnCOTaaK-JGpi5-34" value="Abmelden" style="text;strokeColor=none;align=center;fillColor=none;html=1;verticalAlign=middle;whiteSpace=wrap;rounded=0;" parent="1" vertex="1">
          <mxGeometry x="272" y="680" width="110" height="30" as="geometry" />
        </mxCell>
        <mxCell id="smadUlZnCOTaaK-JGpi5-35" value="zurück zum Hauptmenü" style="text;strokeColor=none;align=center;fillColor=none;html=1;verticalAlign=middle;whiteSpace=wrap;rounded=0;" parent="1" vertex="1">
          <mxGeometry x="55" y="680" width="110" height="30" as="geometry" />
        </mxCell>
        <mxCell id="smadUlZnCOTaaK-JGpi5-36" value="" style="rounded=0;whiteSpace=wrap;html=1;" parent="1" vertex="1">
          <mxGeometry x="395" y="805" width="120" height="60" as="geometry" />
        </mxCell>
        <mxCell id="smadUlZnCOTaaK-JGpi5-37" value="Koffer wählen" style="text;strokeColor=none;align=center;fillColor=none;html=1;verticalAlign=middle;whiteSpace=wrap;rounded=0;" parent="1" vertex="1">
          <mxGeometry x="425" y="830" width="60" height="30" as="geometry" />
        </mxCell>
        <mxCell id="smadUlZnCOTaaK-JGpi5-38" value="Dropdown" style="text;strokeColor=none;align=center;fillColor=none;html=1;verticalAlign=middle;whiteSpace=wrap;rounded=0;" parent="1" vertex="1">
          <mxGeometry x="395" y="805" width="110" height="30" as="geometry" />
        </mxCell>
        <mxCell id="smadUlZnCOTaaK-JGpi5-39" value="zurück zum Hauptmenü" style="text;strokeColor=none;align=center;fillColor=none;html=1;verticalAlign=middle;whiteSpace=wrap;rounded=0;" parent="1" vertex="1">
          <mxGeometry x="190" y="1000" width="110" height="30" as="geometry" />
        </mxCell>
        <mxCell id="smadUlZnCOTaaK-JGpi5-40" value="Reservieren" style="text;strokeColor=none;align=center;fillColor=none;html=1;verticalAlign=middle;whiteSpace=wrap;rounded=0;" parent="1" vertex="1">
          <mxGeometry x="179" y="790" width="110" height="30" as="geometry" />
        </mxCell>
        <mxCell id="smadUlZnCOTaaK-JGpi5-41" value="Bei Klick auf Datum öffnet sich Tagesansicht. Wenn Tageszeit gewählt wurde, Bestätigung und zurück auf Kalender" style="text;strokeColor=none;align=center;fillColor=none;html=1;verticalAlign=middle;whiteSpace=wrap;rounded=0;" parent="1" vertex="1">
          <mxGeometry x="245" y="930" width="290" height="42.5" as="geometry" />
        </mxCell>
        <mxCell id="smadUlZnCOTaaK-JGpi5-44" value="" style="endArrow=classic;html=1;rounded=0;exitX=0;exitY=0.5;exitDx=0;exitDy=0;entryX=0;entryY=1;entryDx=0;entryDy=0;" parent="1" source="smadUlZnCOTaaK-JGpi5-32" target="smadUlZnCOTaaK-JGpi5-6" edge="1">
          <mxGeometry width="50" height="50" relative="1" as="geometry">
            <mxPoint x="350" y="850" as="sourcePoint" />
            <mxPoint x="30" y="840" as="targetPoint" />
            <Array as="points">
              <mxPoint x="30" y="740" />
            </Array>
          </mxGeometry>
        </mxCell>
        <mxCell id="smadUlZnCOTaaK-JGpi5-45" value="" style="rounded=0;whiteSpace=wrap;html=1;" parent="1" vertex="1">
          <mxGeometry x="495" y="567.5" width="245" height="60" as="geometry" />
        </mxCell>
        <mxCell id="smadUlZnCOTaaK-JGpi5-46" value="Liste mit allen Reservierungen" style="text;strokeColor=none;align=center;fillColor=none;html=1;verticalAlign=middle;whiteSpace=wrap;rounded=0;" parent="1" vertex="1">
          <mxGeometry x="515" y="582.5" width="170" height="30" as="geometry" />
        </mxCell>
        <mxCell id="smadUlZnCOTaaK-JGpi5-47" value="Stornierung bestätigen" style="text;strokeColor=none;align=center;fillColor=none;html=1;verticalAlign=middle;whiteSpace=wrap;rounded=0;" parent="1" vertex="1">
          <mxGeometry x="575" y="642.5" width="60" height="30" as="geometry" />
        </mxCell>
        <mxCell id="smadUlZnCOTaaK-JGpi5-48" value="zurück zum Hauptmenü" style="text;strokeColor=none;align=center;fillColor=none;html=1;verticalAlign=middle;whiteSpace=wrap;rounded=0;" parent="1" vertex="1">
          <mxGeometry x="440" y="670" width="110" height="30" as="geometry" />
        </mxCell>
        <mxCell id="smadUlZnCOTaaK-JGpi5-49" value="Abmelden" style="text;strokeColor=none;align=center;fillColor=none;html=1;verticalAlign=middle;whiteSpace=wrap;rounded=0;" parent="1" vertex="1">
          <mxGeometry x="655" y="670" width="110" height="30" as="geometry" />
        </mxCell>
        <mxCell id="smadUlZnCOTaaK-JGpi5-50" value="" style="endArrow=classic;html=1;rounded=0;entryX=1;entryY=1;entryDx=0;entryDy=0;exitX=0;exitY=0;exitDx=0;exitDy=0;" parent="1" source="smadUlZnCOTaaK-JGpi5-24" target="smadUlZnCOTaaK-JGpi5-6" edge="1">
          <mxGeometry width="50" height="50" relative="1" as="geometry">
            <mxPoint x="350" y="610" as="sourcePoint" />
            <mxPoint x="400" y="560" as="targetPoint" />
          </mxGeometry>
        </mxCell>
        <mxCell id="smadUlZnCOTaaK-JGpi5-52" value="" style="endArrow=classic;html=1;rounded=0;entryX=0.53;entryY=1.024;entryDx=0;entryDy=0;entryPerimeter=0;exitX=0.5;exitY=0;exitDx=0;exitDy=0;" parent="1" source="smadUlZnCOTaaK-JGpi5-20" target="smadUlZnCOTaaK-JGpi5-6" edge="1">
          <mxGeometry width="50" height="50" relative="1" as="geometry">
            <mxPoint x="350" y="610" as="sourcePoint" />
            <mxPoint x="400" y="560" as="targetPoint" />
          </mxGeometry>
        </mxCell>
      </root>
    </mxGraphModel>
  </diagram>
</mxfile>
